<svg id="icon" xmlns="http://www.w3.org/2000/svg" viewBox="0 0 512 512"><title>cheque</title><path d="M76.54,459.08H290a22.05,22.05,0,0,0,22-22,5.74,5.74,0,1,0-11.47,0A10.58,10.58,0,0,1,290,447.61H76.54A40.29,40.29,0,0,1,36.3,407.36V222.88c0-20.14,16-37,35.59-37.5A36.62,36.62,0,0,1,109.55,222a5.66,5.66,0,0,0,.12,1.17,5.5,5.5,0,0,0-.12,1.16v133.9a35.65,35.65,0,1,0-24.19,61.84H429.64a22,22,0,0,0,22-22V293.29a5.74,5.74,0,1,0-11.47,0V398.06a10.54,10.54,0,0,1-10.53,10.53H85.36a24.2,24.2,0,1,1,24.19-24.28,30,30,0,0,1-1.46,8.63,5.73,5.73,0,1,0,10.7,4.13A41.15,41.15,0,0,0,121,384.39c0-.16,0-.33,0-.5s0-.08,0-.12V230.05H373.81a5.74,5.74,0,1,0,0-11.47H120.89a48.08,48.08,0,0,0-49.31-44.66c-25.78.7-46.75,22.66-46.75,49V407.36A51.77,51.77,0,0,0,76.54,459.08Z"/><path d="M375.39,297l12.43,30.73a5.72,5.72,0,0,0,3.79,3.37,5.65,5.65,0,0,0,1.53.21,5.71,5.71,0,0,0,3.45-1.16l26.44-20a5.67,5.67,0,0,0,2.07-3.05L486.24,85.72a25.9,25.9,0,1,0-49.93-13.78L375.18,293.28A5.73,5.73,0,0,0,375.39,297Zm72-222a14.43,14.43,0,1,1,27.81,7.68l-2.35,8.51-13.91-3.84a5.73,5.73,0,1,0-3.05,11l13.91,3.84L414.56,302.14l-18.91,14.31-8.9-22Z"/><path d="M326.75,254.63a5.73,5.73,0,0,0-5.73,5.74v4.55a19,19,0,0,0,1.88,38h7.7a7.57,7.57,0,0,1,0,15.14H315.68a5.74,5.74,0,1,0,0,11.47H321V334a5.74,5.74,0,0,0,11.47,0v-4.55a19,19,0,0,0-1.89-38h-7.7a7.58,7.58,0,0,1,0-15.15h14.93a5.74,5.74,0,0,0,0-11.47h-5.34v-4.45A5.74,5.74,0,0,0,326.75,254.63Z"/><path d="M154.34,278.91h65.38a5.74,5.74,0,0,0,0-11.47H154.34a5.74,5.74,0,0,0,0,11.47Z"/><path d="M272.67,319.32a5.73,5.73,0,0,0-5.73-5.73H154.34a5.74,5.74,0,0,0,0,11.47h112.6A5.74,5.74,0,0,0,272.67,319.32Z"/><path d="M154.34,359.74a5.74,5.74,0,0,0,0,11.47H216a5.74,5.74,0,1,0,0-11.47Z"/><path d="M287.75,365.47a5.73,5.73,0,0,0,5.73,5.74h66.8a5.74,5.74,0,1,0,0-11.47h-66.8A5.72,5.72,0,0,0,287.75,365.47Z"/><path d="M259.79,362.29a5.47,5.47,0,0,0-.71-.88,5.8,5.8,0,0,0-.87-.7,5.27,5.27,0,0,0-1-.53,5.18,5.18,0,0,0-1.08-.33,5.58,5.58,0,0,0-2.23,0,5,5,0,0,0-1.08.33,4.72,4.72,0,0,0-1,.53,5.34,5.34,0,0,0-.87.7,6.89,6.89,0,0,0-.72.88,6.18,6.18,0,0,0-.53,1,6,6,0,0,0-.31,1.08,4.74,4.74,0,0,0-.12,1.12,5.77,5.77,0,0,0,1.68,4.06,6.73,6.73,0,0,0,.87.71,5.87,5.87,0,0,0,1,.53,5,5,0,0,0,1.08.32,5.19,5.19,0,0,0,1.12.11,5.76,5.76,0,0,0,4-1.67,5.86,5.86,0,0,0,1.68-4.06,6.07,6.07,0,0,0-.11-1.12,7.06,7.06,0,0,0-.33-1.08A6.18,6.18,0,0,0,259.79,362.29Z"/></svg>