<?xml version="1.0" standalone="no"?>
<!DOCTYPE svg PUBLIC "-//W3C//DTD SVG 20010904//EN"
 "http://www.w3.org/TR/2001/REC-SVG-20010904/DTD/svg10.dtd">
<svg version="1.0" xmlns="http://www.w3.org/2000/svg"
 width="1649.000000pt" height="1649.000000pt" viewBox="0 0 1649.000000 1649.000000"
 preserveAspectRatio="xMidYMid meet">

<g transform="translate(0.000000,1649.000000) scale(0.100000,-0.100000)"
fill="#000000" stroke="none">
<path d="M4545 15861 c-119 -7 -155 -24 -155 -72 0 -33 38 -79 66 -79 19 0 46
-8 134 -39 104 -36 164 -61 174 -71 5 -5 19 -10 31 -10 12 0 42 -13 68 -30 26
-16 56 -30 66 -30 10 0 49 -20 87 -45 38 -24 91 -52 117 -61 29 -9 56 -27 69
-45 12 -16 40 -40 62 -55 77 -49 265 -262 422 -477 37 -51 54 -67 69 -64 38 7
645 391 645 409 0 35 -77 178 -150 279 -60 82 -131 146 -176 158 -22 6 -52 20
-69 31 -16 11 -36 20 -43 20 -8 0 -28 6 -45 14 -45 19 -99 33 -244 62 -327 66
-375 74 -619 104 -84 10 -338 11 -509 1z"/>
<path d="M12019 15796 c-3 -3 -70 -10 -150 -16 -125 -8 -231 -22 -344 -44 -16
-3 -79 -12 -140 -21 -193 -28 -352 -68 -399 -101 -11 -8 -30 -14 -41 -14 -72
0 -218 -155 -318 -340 -28 -51 -96 -177 -130 -240 -16 -30 -43 -82 -59 -115
-16 -33 -38 -76 -49 -95 -11 -19 -38 -73 -59 -120 -22 -47 -49 -101 -61 -120
-11 -19 -36 -71 -57 -115 -20 -44 -65 -135 -99 -202 -35 -68 -63 -127 -63
-132 0 -4 -29 -70 -65 -145 -36 -75 -65 -139 -65 -142 0 -3 -13 -34 -29 -69
-16 -34 -50 -116 -76 -181 -25 -66 -50 -126 -54 -135 -5 -8 -32 -76 -61 -150
-29 -74 -60 -154 -70 -179 -10 -25 -37 -94 -60 -155 -23 -60 -48 -123 -55
-140 -7 -16 -32 -75 -55 -130 -59 -140 -68 -159 -115 -255 -80 -161 -142 -278
-189 -352 -25 -41 -46 -78 -46 -82 0 -18 -159 -257 -201 -301 -80 -84 -121
-153 -127 -212 -6 -67 32 -198 99 -338 16 -33 31 -72 34 -87 6 -32 60 -68 101
-68 70 0 183 116 317 326 31 49 103 156 160 239 43 62 187 298 211 345 16 30
32 60 36 65 18 23 136 251 219 425 23 47 45 92 51 100 5 8 35 69 66 135 31 66
76 163 101 215 25 52 63 133 85 180 39 85 95 197 116 235 6 11 50 99 97 195
48 96 102 204 122 240 20 36 46 86 59 111 12 26 41 75 63 109 23 35 41 67 41
71 0 7 83 139 295 472 11 18 29 47 40 65 11 19 37 57 58 85 22 29 54 75 72
102 67 99 259 328 345 410 29 28 66 64 84 81 17 18 51 44 76 60 25 15 51 35
58 46 15 21 64 48 88 48 9 0 49 20 88 45 40 25 81 45 91 45 10 0 42 14 72 30
29 17 63 30 76 30 13 0 27 4 33 9 15 16 129 54 259 88 90 24 111 36 118 70 7
39 -11 71 -47 82 -55 17 -535 49 -547 37z"/>
<path d="M4460 15240 c-314 -31 -703 -242 -941 -511 -128 -145 -189 -235 -277
-414 -170 -343 -245 -678 -245 -1090 0 -321 44 -588 149 -910 108 -331 251
-604 468 -895 99 -134 395 -427 536 -532 240 -178 505 -314 819 -420 114 -38
384 -108 418 -108 11 0 110 -69 220 -152 111 -84 272 -207 360 -273 402 -306
563 -426 586 -434 19 -7 42 -2 108 25 45 19 86 31 90 26 4 -4 43 -104 87 -222
44 -118 86 -227 93 -243 l12 -27 1450 2 1449 3 85 205 c46 113 95 233 110 268
30 73 37 75 123 32 33 -16 70 -30 84 -30 29 0 49 13 511 341 198 140 430 304
514 364 l155 109 155 32 c487 98 925 294 1271 570 167 133 400 382 535 569
293 409 503 973 546 1470 14 163 6 495 -16 635 -72 460 -264 860 -550 1145
-127 127 -241 211 -394 289 -200 103 -340 144 -512 153 -231 12 -430 -47 -661
-196 -83 -53 -107 -81 -113 -127 -2 -11 -36 -70 -77 -130 -113 -165 -245 -383
-460 -759 -382 -666 -928 -1649 -1233 -2220 -197 -369 -272 -506 -295 -540
-15 -22 -53 -92 -85 -155 -59 -118 -151 -297 -364 -711 -124 -242 -137 -282
-103 -311 9 -8 61 -32 115 -53 54 -21 102 -44 107 -50 10 -13 15 -8 -615 -530
-165 -136 -307 -254 -317 -262 -14 -13 -59 24 -423 348 -355 315 -406 364
-391 374 9 7 63 29 120 49 81 29 106 43 115 62 6 14 11 29 11 34 0 4 -80 179
-179 387 -98 208 -202 430 -232 493 -30 63 -72 151 -94 195 -477 947 -839
1662 -845 1670 -4 6 -73 140 -155 300 -81 159 -211 409 -288 555 -77 146 -180
342 -230 435 -165 314 -291 536 -400 704 -33 51 -61 101 -62 110 -3 50 -30 82
-117 142 -181 124 -350 189 -539 209 -56 5 -104 9 -108 9 -3 -1 -40 -5 -81 -9z
m245 -1094 c154 -107 324 -332 640 -846 75 -124 155 -252 175 -285 41 -65 633
-1052 799 -1331 55 -95 101 -178 101 -185 0 -26 -152 -104 -275 -142 -374
-113 -877 -56 -1305 149 -176 84 -298 170 -431 303 -175 175 -279 346 -360
593 -122 372 -141 772 -51 1093 29 104 77 223 118 289 85 142 230 306 326 370
45 31 53 33 127 31 75 -1 83 -3 136 -39z m7846 -42 c199 -162 347 -421 410
-714 26 -125 36 -382 20 -516 -29 -229 -99 -486 -181 -660 -99 -212 -305 -453
-494 -578 -96 -64 -288 -159 -401 -200 -378 -136 -831 -160 -1150 -59 -112 36
-295 131 -295 154 0 11 51 96 153 256 40 61 117 182 172 267 55 86 120 188
145 226 25 39 115 179 200 311 737 1146 957 1442 1152 1547 34 18 56 22 122
21 l81 -1 66 -54z"/>
<path d="M6177 14811 c-164 -103 -303 -193 -310 -200 -12 -12 -1 -38 58 -136
17 -27 37 -62 44 -77 8 -16 22 -28 31 -28 15 0 581 348 607 373 10 10 4 30
-27 97 -69 145 -75 155 -90 157 -8 1 -149 -83 -313 -186z"/>
<path d="M6410 14389 c-151 -94 -284 -179 -294 -189 -18 -18 -18 -19 10 -67
77 -131 281 -540 345 -692 23 -53 54 -122 69 -153 16 -31 48 -101 71 -155 23
-54 53 -123 66 -153 13 -30 31 -71 39 -90 18 -40 24 -55 57 -130 14 -30 43
-99 66 -153 23 -54 50 -112 60 -130 9 -18 38 -81 63 -142 41 -97 140 -307 169
-359 6 -10 32 -60 59 -110 42 -79 177 -314 231 -401 10 -16 23 -39 28 -50 5
-11 25 -40 45 -65 20 -25 36 -49 36 -53 0 -5 21 -41 48 -80 26 -39 55 -85 66
-101 48 -79 132 -146 184 -146 39 0 102 45 102 73 0 13 16 47 35 77 19 30 35
62 35 70 0 8 9 32 20 53 11 20 20 44 20 52 0 9 7 26 15 39 10 14 16 51 18 97
2 69 0 78 -32 129 -19 30 -57 80 -83 110 -41 46 -198 302 -198 322 0 3 -20 41
-45 82 -25 42 -45 79 -45 83 0 3 -20 46 -45 96 -62 123 -159 353 -231 547 -7
19 -22 62 -34 95 -13 33 -28 76 -35 95 -19 51 -44 128 -60 185 -8 28 -18 59
-23 70 -18 40 -52 131 -52 139 0 4 -6 22 -14 39 -25 60 -56 142 -56 151 0 4
-6 22 -14 39 -7 18 -32 82 -55 142 -23 61 -46 119 -51 130 -5 11 -18 40 -29
65 -10 25 -31 71 -45 104 -14 32 -26 63 -26 68 0 10 -21 58 -76 175 -19 40
-34 75 -34 77 0 3 -15 38 -33 78 -19 40 -37 81 -40 91 -4 9 -12 17 -19 17 -8
0 -137 -77 -288 -171z"/>
<path d="M2365 8878 c-3 -7 -4 -921 -3 -2031 l3 -2019 600 0 600 1 2 776 c1
427 4 780 8 783 4 4 394 7 868 7 846 0 863 0 932 21 353 106 590 345 682 689
l27 100 0 420 c1 315 -2 439 -13 494 -58 318 -284 591 -587 711 -154 62 -108
60 -1681 60 -1138 0 -1435 -3 -1438 -12z m2500 -1205 c14 -13 16 -27 11 -67
-3 -28 -6 -102 -6 -163 l0 -113 -645 0 c-508 0 -646 3 -650 13 -2 6 -6 81 -8
165 -5 126 -3 155 9 167 13 13 99 15 644 15 577 0 630 -1 645 -17z"/>
<path d="M7188 8874 c-135 -24 -265 -82 -378 -169 -65 -50 -175 -164 -217
-226 -80 -116 -135 -270 -152 -422 -14 -126 -14 -716 0 -832 19 -156 90 -339
173 -448 121 -158 331 -304 502 -347 153 -38 188 -40 1016 -40 l808 0 5 -22
c3 -13 4 -90 3 -173 l-3 -150 -1255 -5 -1255 -5 0 -605 0 -605 55 1 c30 1 695
5 1477 8 l1422 6 87 26 c300 87 540 317 633 609 45 138 51 214 51 609 0 460
-11 537 -103 721 -121 245 -337 423 -602 497 -80 23 -84 23 -942 26 l-863 3 0
112 c0 62 -3 135 -6 162 -9 88 -138 80 1263 80 l1248 0 0 600 0 600 -1445 2
c-1195 1 -1458 -1 -1522 -13z"/>
<path d="M10508 8883 c-2 -5 -1 -919 2 -2033 l5 -2025 60 3 c33 2 726 5 1540
6 l1480 1 88 28 c160 50 277 118 391 226 88 85 145 166 200 282 83 176 96 271
96 704 0 333 -8 413 -46 487 -35 68 -125 194 -169 238 -25 24 -45 50 -45 58 0
8 25 42 56 75 104 115 175 242 195 352 14 75 6 769 -10 838 -48 211 -119 344
-261 487 -109 110 -191 166 -313 215 -167 68 -98 65 -1763 65 -826 0 -1504 -3
-1506 -7z m2630 -1208 c9 -3 12 -47 12 -175 l0 -170 -715 0 -715 0 0 119 c0
65 -3 138 -6 163 -11 81 -64 76 718 71 381 -3 699 -6 706 -8z m7 -1292 c14
-13 16 -27 11 -67 -3 -28 -6 -102 -6 -163 l0 -113 -715 0 -715 0 0 175 0 175
348 3 c1078 8 1059 8 1077 -10z"/>
<path d="M6696 4588 c-3 -7 -36 -177 -76 -378 -39 -201 -77 -394 -85 -430 -8
-36 -17 -81 -20 -100 -3 -19 -12 -64 -20 -100 -8 -36 -23 -114 -35 -175 -11
-60 -27 -141 -36 -180 -16 -78 -136 -686 -182 -925 -50 -260 -55 -301 -50
-431 5 -108 10 -139 42 -239 21 -63 46 -134 57 -158 20 -44 68 -82 105 -82 11
0 51 -16 90 -35 137 -69 165 -51 249 165 20 52 74 185 120 295 45 110 135 328
200 485 65 157 140 339 167 405 28 66 79 190 113 275 62 154 143 350 340 825
57 138 147 356 200 485 53 129 102 249 110 266 7 18 11 35 8 38 -4 3 -296 6
-650 6 -506 0 -644 -3 -647 -12z"/>
<path d="M8620 4591 c0 -8 31 -96 118 -336 58 -159 238 -674 261 -747 7 -20
23 -54 37 -74 14 -20 50 -102 80 -183 30 -80 61 -162 69 -181 17 -42 115 -303
185 -494 28 -76 55 -148 60 -160 9 -20 219 -580 280 -746 180 -486 176 -477
211 -496 42 -21 70 -17 139 19 84 42 197 153 242 237 66 120 73 156 73 345 -1
171 -18 299 -99 750 -8 44 -22 125 -31 180 -9 55 -22 136 -30 180 -15 88 -18
105 -106 645 -34 206 -87 530 -118 720 l-57 345 -657 3 c-372 1 -657 -2 -657
-7z"/>
</g>
</svg>
